<svg xmlns="http://www.w3.org/2000/svg" version="1.1" xmlns:xlink="http://www.w3.org/1999/xlink"
    xmlns:svgjs="http://svgjs.com/svgjs" width="1440" height="560" preserveAspectRatio="none" viewBox="0 0 1440 560">
    <g mask="url(&quot;#SvgjsMask1078&quot;)" fill="none">
        <rect width="1440" height="560" x="0" y="0" fill="rgba(0, 128, 128,0.2)"></rect>
        <path
            d="M0,521.61C117.154,525.146,236.342,581.443,344.216,535.61C457.844,487.333,559.457,389.393,591.693,270.217C623.072,154.209,558.47,36.303,508.881,-73.166C469.815,-159.406,403.197,-224.326,337.004,-292.016C274.863,-355.562,218.776,-429.675,134.037,-456.487C48.523,-483.544,-41.842,-460.476,-129.041,-439.475C-220.287,-417.499,-310.249,-391.137,-383.083,-331.943C-465.381,-265.057,-540.86,-184.045,-569.102,-81.824C-599.089,26.713,-585.042,143.539,-543.348,248.139C-500.372,355.954,-434.789,463.046,-331.115,515.226C-230.47,565.882,-112.623,518.211,0,521.61"
            fill="#003535"></path>
        <path
            d="M1440 1100.804C1550.938 1101.7649999999999 1667.597 1119.0549999999998 1764.022 1064.188 1862.4 1008.2090000000001 1935.692 909.488 1967.252 800.788 1996.99 698.363 1960.075 592.007 1930.902 489.419 1905.117 398.747 1870.996 311.255 1808.08 241.05700000000002 1745.8690000000001 171.64499999999998 1667.556 115.30900000000003 1576.749 94.27499999999998 1488.574 73.85000000000002 1400.346 103.88999999999999 1312.653 126.29700000000003 1221.753 149.52300000000002 1130.519 170.233 1056.065 227.31900000000002 969.944 293.351 860.956 367.668 856.432 476.096 851.856 585.78 989.267 645.159 1034.459 745.204 1079.944 845.896 1036.489 985.762 1119.564 1058.607 1202.242 1131.104 1330.0430000000001 1099.8519999999999 1440 1100.804"
            fill="#004f4f"></path>
    </g>
    <defs>
        <mask id="SvgjsMask1078">
            <rect width="1440" height="560" fill="#ffffff"></rect>
        </mask>
    </defs>
</svg>